# xmcd
#
# Track frame offsets: 
#        150
#        10822
#        21382
#        31729
#        38321
#        43241
#        56371
#        66800
#        77360
#        87645
#        98392
#        102135
#        115090
#        127956
#        139181
#        152151
#        153400
#        169105
#        183351
#        195409
#        207126
#        221528
#
# Disc length: 3060 seconds
#
# Revision: 0
# Processed by: cddbd v1.5.2PL0 Copyright (c) Steve Scherf et al.
# Submitted via: ExactAudioCopy v0.95b3
#
DISCID=100bf216
DTITLE=The Monkees - The Monkees Complete 02 of 28 
DYEAR=1900
DGENRE=
TTITLE0=All The King's Horses
TTITLE1=All The King's Horses (alt. mix 1)
TTITLE2=All The King's Horses (alt. mix 2)
TTITLE3=Gonna Buy Me A Dog (Davy on "Farmer's Daughter" 1965)
TTITLE4=Gonna Buy Me A Dog (partial backing track)
TTITLE5=I Can't Get Her Off My Mind (original version)
TTITLE6=I Don't Think You Know Me (1st version)
TTITLE7=I Don't Think You Know Me (1st version alt. mix 1)
TTITLE8=I Don't Think You Know Me (1st version alt. mix 2)
TTITLE9=I Wanna Be Free (Boyce and Hart - fast version)
TTITLE10=I Wanna Be Free (Boyce and Hart - slow version)
TTITLE11=I Wanna Be Free (original version)
TTITLE12=I Wanna Be Free (original version alt. mix)
TTITLE13=I Wanna Be Free (backing track)
TTITLE14=I'll Be True To You (alt. mix)
TTITLE15=Kellogg's Jingle
TTITLE16=Last Train To Clarksville (alt. mix 1)
TTITLE17=Last Train To Clarksville (alt. mix 2)
TTITLE18=Last Train To Clarksville (from acetate)
TTITLE19=Last Train To Clarksville (vocal overdub session)
TTITLE20=Last Train To Clarksville (4.1 composite)
TTITLE21=Let's Dance On (Boyce and Hart demo)
EXTD=
EXTT0=
EXTT1=
EXTT2=
EXTT3=
EXTT4=
EXTT5=
EXTT6=
EXTT7=
EXTT8=
EXTT9=
EXTT10=
EXTT11=
EXTT12=
EXTT13=
EXTT14=
EXTT15=
EXTT16=
EXTT17=
EXTT18=
EXTT19=
EXTT20=
EXTT21=
PLAYORDER=
